<svg aria-hidden="true" style="position: absolute; width: 0; height: 0; overflow: hidden;" version="1.1" xmlns="http://www.w3.org/2000/svg" xmlns:xlink="http://www.w3.org/1999/xlink">
<defs>
<symbol id="icon-settings" viewBox="0 0 32 32">
<path fill="" style="" d="M19.428 9.083h7.999v2.297h-7.999v-2.297z"></path>
<path fill="" style="" d="M19.428 14.825h7.999v2.297h-7.999v-2.297z"></path>
<path fill="" style="" d="M19.428 20.567h7.999v2.297h-7.999v-2.297z"></path>
<path fill="" style="" d="M29.712 3.341h-27.424c-0.606 0.001-1.187 0.243-1.615 0.673s-0.669 1.014-0.67 1.623v20.672c0.001 0.609 0.242 1.193 0.67 1.623s1.009 0.673 1.615 0.673h27.424c0.606-0.001 1.187-0.243 1.615-0.674s0.669-1.014 0.67-1.623v-20.672c-0.001-0.609-0.242-1.193-0.67-1.623s-1.009-0.673-1.615-0.673zM2.288 5.638h12.569v20.672h-12.569v-20.672zM17.142 26.31v-20.672h12.569l0.002 20.672h-12.571z"></path>
</symbol>
<symbol id="icon-shop" viewBox="0 0 32 32">
<path fill="" style="" opacity="0.15" d="M29.1 9.167h-26.2c-0.012 0-0.020 0.008-0.020 0.020v3.604c0 2.363 1.96 4.279 4.372 4.279 1.628 0 3.048-0.869 3.804-2.161 0.116-0.202 0.336-0.328 0.572-0.328s0.452 0.126 0.572 0.328c0.752 1.292 2.172 2.161 3.8 2.161 1.632 0 3.056-0.873 3.804-2.169 0.116-0.198 0.328-0.32 0.556-0.32h0.024c0.232 0 0.44 0.122 0.556 0.32 0.752 1.296 2.176 2.169 3.808 2.169 2.412 0 4.372-1.916 4.372-4.279v-3.604c0-0.012-0.008-0.020-0.020-0.020z"></path>
<path fill="" style="" d="M30.8 6.326v-5.061c0-0.699-0.572-1.264-1.28-1.264h-27.040c-0.708 0-1.28 0.565-1.28 1.264v5.061c-0.668 0.040-1.2 0.589-1.2 1.26v5.204c-0.003 0.956 0.193 1.903 0.576 2.782 0.172 0.403 0.384 0.782 0.624 1.142v13.632c0 0.695 0.572 1.264 1.28 1.264h27.040c0.708 0 1.28-0.565 1.28-1.264v-13.632c0.244-0.36 0.453-0.743 0.624-1.142 0.38-0.881 0.576-1.818 0.576-2.782v-5.204c0-0.672-0.532-1.221-1.2-1.26zM4.080 2.845h23.84v3.477h-23.84v-3.477zM18.56 28.769h-5.12v-4.113h5.12v4.113zM27.936 28.769h-6.816v-5.378c0-0.699-0.572-1.264-1.28-1.264h-7.68c-0.708 0-1.28 0.565-1.28 1.264v5.378h-6.8v-9.57c0.116 0.055 0.236 0.111 0.36 0.158 0.892 0.371 1.84 0.557 2.816 0.557s1.92-0.186 2.816-0.557c0.552-0.229 1.072-0.522 1.548-0.873 0.008-0.004 0.016-0.004 0.024 0 0.477 0.353 0.997 0.646 1.548 0.873 0.892 0.371 1.84 0.557 2.816 0.557s1.92-0.186 2.816-0.557c0.552-0.229 1.072-0.522 1.548-0.873 0.008-0.004 0.016-0.004 0.024 0 0.477 0.353 0.997 0.646 1.548 0.873 0.892 0.371 1.84 0.557 2.816 0.557s1.92-0.186 2.816-0.557c0.12-0.051 0.24-0.103 0.36-0.158v9.57zM29.12 12.79c0 2.363-1.96 4.279-4.372 4.279-1.632 0-3.056-0.873-3.808-2.169-0.116-0.198-0.324-0.32-0.556-0.32h-0.024c-0.228 0-0.44 0.122-0.556 0.32-0.384 0.661-0.938 1.21-1.606 1.591s-1.427 0.58-2.198 0.578c-1.628 0-3.048-0.869-3.8-2.161-0.12-0.201-0.336-0.328-0.572-0.328s-0.456 0.126-0.572 0.328c-0.386 0.659-0.941 1.205-1.609 1.585s-1.425 0.578-2.195 0.577c-2.412 0-4.372-1.916-4.372-4.279v-3.603c0-0.012 0.008-0.020 0.020-0.020h26.2c0.012 0 0.020 0.008 0.020 0.020v3.603z"></path>
</symbol>
<symbol id="icon-portfolio" viewBox="0 0 32 32">
<path fill="" style="" d="M28.392 8.35h-3.38v-3.38c0-0.598-0.237-1.171-0.66-1.593s-0.996-0.66-1.593-0.66h-13.519c-0.598 0-1.171 0.237-1.593 0.66s-0.66 0.996-0.66 1.593v3.38h-3.38c-0.896 0-1.756 0.356-2.39 0.99s-0.99 1.493-0.99 2.39v15.772c0 0.598 0.237 1.171 0.66 1.593s0.996 0.66 1.593 0.66h27.038c0.598 0 1.171-0.237 1.593-0.66s0.66-0.996 0.66-1.593v-15.772c0-0.896-0.356-1.756-0.99-2.39s-1.493-0.99-2.39-0.99zM9.241 4.971h13.519v3.38h-13.519v-3.38zM29.519 27.502h-27.038v-10.139h9.013v5.633h9.013v-5.633h9.013v10.139zM13.747 17.363h4.506v3.38h-4.506v-3.38zM2.481 15.11v-3.38c0-0.299 0.119-0.585 0.33-0.797s0.498-0.33 0.797-0.33h24.785c0.299 0 0.585 0.119 0.797 0.33s0.33 0.498 0.33 0.797v3.38h-27.038z"></path>
</symbol>
</defs>
</svg>
