<svg aria-hidden="true" style="position: absolute; width: 0; height: 0; overflow: hidden;" version="1.1" xmlns="http://www.w3.org/2000/svg" xmlns:xlink="http://www.w3.org/1999/xlink">
<defs>
<symbol id="icon-settings" viewBox="0 0 32 32">
<path fill="" style="" d="M19.428 9.083h7.999v2.297h-7.999v-2.297z"></path>
<path fill="" style="" d="M19.428 14.825h7.999v2.297h-7.999v-2.297z"></path>
<path fill="" style="" d="M19.428 20.567h7.999v2.297h-7.999v-2.297z"></path>
<path fill="" style="" d="M29.712 3.341h-27.424c-0.606 0.001-1.187 0.243-1.615 0.673s-0.669 1.014-0.67 1.623v20.672c0.001 0.609 0.242 1.193 0.67 1.623s1.009 0.673 1.615 0.673h27.424c0.606-0.001 1.187-0.243 1.615-0.674s0.669-1.014 0.67-1.623v-20.672c-0.001-0.609-0.242-1.193-0.67-1.623s-1.009-0.673-1.615-0.673zM2.288 5.638h12.569v20.672h-12.569v-20.672zM17.142 26.31v-20.672h12.569l0.002 20.672h-12.571z"></path>
</symbol>
<symbol id="icon-shop" viewBox="0 0 32 32">
<path fill="" style="" opacity="0.15" d="M29.1 9.167h-26.2c-0.012 0-0.020 0.008-0.020 0.020v3.604c0 2.363 1.96 4.279 4.372 4.279 1.628 0 3.048-0.869 3.804-2.161 0.116-0.202 0.336-0.328 0.572-0.328s0.452 0.126 0.572 0.328c0.752 1.292 2.172 2.161 3.8 2.161 1.632 0 3.056-0.873 3.804-2.169 0.116-0.198 0.328-0.32 0.556-0.32h0.024c0.232 0 0.44 0.122 0.556 0.32 0.752 1.296 2.176 2.169 3.808 2.169 2.412 0 4.372-1.916 4.372-4.279v-3.604c0-0.012-0.008-0.020-0.020-0.020z"></path>
<path fill="" style="" d="M30.8 6.326v-5.061c0-0.699-0.572-1.264-1.28-1.264h-27.040c-0.708 0-1.28 0.565-1.28 1.264v5.061c-0.668 0.040-1.2 0.589-1.2 1.26v5.204c-0.003 0.956 0.193 1.903 0.576 2.782 0.172 0.403 0.384 0.782 0.624 1.142v13.632c0 0.695 0.572 1.264 1.28 1.264h27.040c0.708 0 1.28-0.565 1.28-1.264v-13.632c0.244-0.36 0.453-0.743 0.624-1.142 0.38-0.881 0.576-1.818 0.576-2.782v-5.204c0-0.672-0.532-1.221-1.2-1.26zM4.080 2.845h23.84v3.477h-23.84v-3.477zM18.56 28.769h-5.12v-4.113h5.12v4.113zM27.936 28.769h-6.816v-5.378c0-0.699-0.572-1.264-1.28-1.264h-7.68c-0.708 0-1.28 0.565-1.28 1.264v5.378h-6.8v-9.57c0.116 0.055 0.236 0.111 0.36 0.158 0.892 0.371 1.84 0.557 2.816 0.557s1.92-0.186 2.816-0.557c0.552-0.229 1.072-0.522 1.548-0.873 0.008-0.004 0.016-0.004 0.024 0 0.477 0.353 0.997 0.646 1.548 0.873 0.892 0.371 1.84 0.557 2.816 0.557s1.92-0.186 2.816-0.557c0.552-0.229 1.072-0.522 1.548-0.873 0.008-0.004 0.016-0.004 0.024 0 0.477 0.353 0.997 0.646 1.548 0.873 0.892 0.371 1.84 0.557 2.816 0.557s1.92-0.186 2.816-0.557c0.12-0.051 0.24-0.103 0.36-0.158v9.57zM29.12 12.79c0 2.363-1.96 4.279-4.372 4.279-1.632 0-3.056-0.873-3.808-2.169-0.116-0.198-0.324-0.32-0.556-0.32h-0.024c-0.228 0-0.44 0.122-0.556 0.32-0.384 0.661-0.938 1.21-1.606 1.591s-1.427 0.58-2.198 0.578c-1.628 0-3.048-0.869-3.8-2.161-0.12-0.201-0.336-0.328-0.572-0.328s-0.456 0.126-0.572 0.328c-0.386 0.659-0.941 1.205-1.609 1.585s-1.425 0.578-2.195 0.577c-2.412 0-4.372-1.916-4.372-4.279v-3.603c0-0.012 0.008-0.020 0.020-0.020h26.2c0.012 0 0.020 0.008 0.020 0.020v3.603z"></path>
</symbol>
<symbol id="icon-portfolio" viewBox="0 0 32 32">
<path fill="" style="" d="M28.392 8.35h-3.38v-3.38c0-0.598-0.237-1.171-0.66-1.593s-0.996-0.66-1.593-0.66h-13.519c-0.598 0-1.171 0.237-1.593 0.66s-0.66 0.996-0.66 1.593v3.38h-3.38c-0.896 0-1.756 0.356-2.39 0.99s-0.99 1.493-0.99 2.39v15.772c0 0.598 0.237 1.171 0.66 1.593s0.996 0.66 1.593 0.66h27.038c0.598 0 1.171-0.237 1.593-0.66s0.66-0.996 0.66-1.593v-15.772c0-0.896-0.356-1.756-0.99-2.39s-1.493-0.99-2.39-0.99zM9.241 4.971h13.519v3.38h-13.519v-3.38zM29.519 27.502h-27.038v-10.139h9.013v5.633h9.013v-5.633h9.013v10.139zM13.747 17.363h4.506v3.38h-4.506v-3.38zM2.481 15.11v-3.38c0-0.299 0.119-0.585 0.33-0.797s0.498-0.33 0.797-0.33h24.785c0.299 0 0.585 0.119 0.797 0.33s0.33 0.498 0.33 0.797v3.38h-27.038z"></path>
</symbol>
<symbol id="icon-business" viewBox="0 0 33 32">
<path fill="#0d5c63" style="fill: var(--color1, #0d5c63)" d="M29.059 8.35h-3.38v-3.38c0-0.598-0.237-1.171-0.66-1.593s-0.996-0.66-1.593-0.66h-13.519c-0.598 0-1.171 0.237-1.593 0.66s-0.66 0.996-0.66 1.593v3.38h-3.38c-0.896 0-1.756 0.356-2.39 0.99s-0.99 1.493-0.99 2.39v15.772c0 0.598 0.237 1.171 0.66 1.593s0.996 0.66 1.593 0.66h27.038c0.598 0 1.171-0.237 1.593-0.66s0.66-0.996 0.66-1.593v-15.772c0-0.896-0.356-1.756-0.99-2.39s-1.493-0.99-2.39-0.99zM9.907 4.971h13.519v3.38h-13.519v-3.38zM30.186 27.502h-27.038v-10.139h9.013v5.633h9.013v-5.633h9.013v10.139zM14.414 17.363h4.506v3.38h-4.506v-3.38zM3.148 15.11v-3.38c0-0.299 0.119-0.585 0.33-0.797s0.498-0.33 0.797-0.33h24.785c0.299 0 0.585 0.119 0.797 0.33s0.33 0.498 0.33 0.797v3.38h-27.038z"></path>
</symbol>
<symbol id="icon-award" viewBox="0 0 24 32">
<path fill="#0d5c63" style="fill: var(--color1, #0d5c63)" d="M6.043 22.663c-0.541-0.543-0.259-0.39-1.563-0.741-0.592-0.159-1.112-0.466-1.582-0.832l-2.823 6.952c-0.273 0.673 0.237 1.404 0.96 1.377l3.278-0.126 2.255 2.393c0.498 0.527 1.371 0.363 1.645-0.31l3.239-7.976c-0.675 0.377-1.423 0.599-2.197 0.599-1.213 0-2.353-0.474-3.211-1.336zM23.818 28.043l-2.823-6.952c-0.47 0.367-0.991 0.673-1.582 0.832-1.311 0.353-1.024 0.199-1.563 0.741-0.858 0.861-1.999 1.336-3.212 1.336-0.774 0-1.523-0.222-2.197-0.599l3.239 7.976c0.273 0.673 1.147 0.837 1.645 0.31l2.256-2.393 3.279 0.126c0.723 0.028 1.233-0.704 0.96-1.377zM16.364 21.249c0.951-0.972 1.060-0.888 2.414-1.259 0.864-0.237 1.54-0.928 1.771-1.811 0.465-1.775 0.345-1.561 1.615-2.859 0.633-0.647 0.88-1.59 0.648-2.474-0.465-1.774-0.465-1.526 0-3.302 0.231-0.884-0.016-1.827-0.648-2.474-1.27-1.299-1.149-1.085-1.615-2.859-0.231-0.884-0.907-1.574-1.771-1.811-1.735-0.476-1.526-0.351-2.797-1.651-0.633-0.647-1.556-0.9-2.42-0.663-1.734 0.475-1.492 0.476-3.229 0-0.864-0.237-1.787 0.016-2.42 0.663-1.27 1.299-1.061 1.175-2.796 1.651-0.864 0.237-1.54 0.928-1.771 1.811-0.465 1.774-0.345 1.561-1.615 2.859-0.633 0.647-0.88 1.59-0.648 2.474 0.465 1.773 0.465 1.525 0 3.301-0.231 0.884 0.016 1.827 0.648 2.474 1.27 1.299 1.149 1.084 1.615 2.859 0.231 0.884 0.907 1.574 1.771 1.811 1.393 0.381 1.496 0.321 2.413 1.259 0.823 0.842 2.106 0.993 3.095 0.364 0.396-0.252 0.855-0.386 1.323-0.386s0.928 0.134 1.323 0.386c0.989 0.629 2.271 0.478 3.094-0.364zM6.076 10.996c0-3.314 2.628-6.001 5.87-6.001s5.87 2.687 5.87 6.001c0 3.314-2.628 6.001-5.87 6.001s-5.87-2.687-5.87-6.001z"></path>
</symbol>
<symbol id="icon-financial" viewBox="0 0 33 32">
<path fill="#0d5c63" style="fill: var(--color1, #0d5c63)" d="M29.434 14.855c-0.384 0.003-0.764 0.076-1.122 0.216l-3.827-3.19c0.094-0.348 0.161-0.708 0.161-1.089 0-2.252-1.778-4.062-3.99-4.062s-3.99 1.81-3.99 4.062c0 0.644 0.16 1.243 0.418 1.783l-4.642 5.587c-0.186-0.035-0.374-0.054-0.563-0.057-0.286 0-0.555 0.049-0.817 0.12l-4.090-4.165c0.072-0.265 0.12-0.539 0.12-0.83 0-1.8-1.423-3.25-3.192-3.25s-3.192 1.449-3.192 3.25c0 1.8 1.423 3.25 3.192 3.25 0.286 0 0.555-0.049 0.817-0.12l4.090 4.165c-0.077 0.27-0.117 0.549-0.12 0.83 0 1.8 1.424 3.25 3.192 3.25s3.192-1.449 3.192-3.25c0-0.385-0.077-0.747-0.196-1.090l4.649-5.593c0.362 0.107 0.737 0.184 1.133 0.184 0.63-0.004 1.25-0.16 1.808-0.457l3.828 3.19c-0.030 0.171-0.047 0.343-0.051 0.517 0 1.8 1.424 3.25 3.192 3.25s3.192-1.449 3.192-3.25c0-1.8-1.423-3.25-3.192-3.25z"></path>
</symbol>
<symbol id="icon-consumer" viewBox="0 0 33 32">
<path fill="#0d5c63" style="fill: var(--color1, #0d5c63)" d="M16.56 15.202c2.869 0 5.101-2.33 5.101-5.19s-2.338-5.084-5.208-5.084-5.101 2.33-5.101 5.084c0 2.86 2.338 5.19 5.208 5.19zM16.454 7.046c0.106 0 0.106 0 0 0 1.7 0 3.082 1.377 3.082 3.072s-1.382 2.966-3.082 2.966-2.976-1.377-2.976-2.966c0-1.695 1.382-3.072 2.976-3.072z"></path>
<path fill="#0d5c63" style="fill: var(--color1, #0d5c63)" d="M32.289 14.566c-2.019-1.801-4.676-2.754-7.439-2.648h-0.85c-0.213 0.847-0.531 1.589-0.956 2.224 0.638-0.106 1.169-0.106 1.807-0.106 2.019-0.106 4.039 0.53 5.633 1.695v7.626h2.126v-8.474l-0.319-0.318z"></path>
<path fill="#0d5c63" style="fill: var(--color1, #0d5c63)" d="M22.406 5.139c0.531-1.271 2.019-1.907 3.401-1.377 1.275 0.53 1.913 2.012 1.382 3.389-0.425 0.953-1.382 1.589-2.338 1.589-0.213 0-0.531 0-0.744-0.106 0.106 0.53 0.106 1.059 0.106 1.483v0.636c0.213 0 0.425 0.106 0.638 0.106 2.657 0 4.782-2.118 4.782-4.66 0-2.648-2.126-4.766-4.676-4.766-1.7 0-3.188 0.847-4.038 2.33 0.531 0.318 1.063 0.741 1.488 1.377z"></path>
<path fill="#0d5c63" style="fill: var(--color1, #0d5c63)" d="M10.29 14.248c-0.425-0.636-0.744-1.377-0.956-2.224h-0.85c-2.763-0.106-5.42 0.847-7.439 2.542l-0.319 0.318v8.474h2.126v-7.626c1.7-1.165 3.613-1.801 5.633-1.695 0.638 0 1.275 0.106 1.807 0.212z"></path>
<path fill="#0d5c63" style="fill: var(--color1, #0d5c63)" d="M8.483 10.753c0.213 0 0.425 0 0.638-0.106v-0.635c0-0.53 0-1.059 0.106-1.483-0.213 0.106-0.531 0.106-0.744 0.106-1.382 0-2.551-1.165-2.551-2.542s1.169-2.542 2.551-2.542c1.063 0 2.019 0.636 2.444 1.589 0.425-0.53 1.063-1.059 1.594-1.483-1.382-2.224-4.251-2.966-6.483-1.589s-2.976 4.237-1.594 6.461c0.85 1.377 2.338 2.224 4.038 2.224z"></path>
<path fill="#0d5c63" style="fill: var(--color1, #0d5c63)" d="M25.275 20.921l-0.213-0.318c-2.126-2.33-5.101-3.707-8.29-3.601-3.188-0.106-6.27 1.271-8.396 3.601l-0.213 0.318v8.050c0 0.953 0.744 1.801 1.807 1.801h13.603c0.956 0 1.807-0.847 1.807-1.801v-8.050h-0.106zM23.15 28.653h-12.859v-6.991c1.7-1.695 4.038-2.542 6.483-2.542 2.338-0.106 4.676 0.847 6.377 2.542v6.991z"></path>
</symbol>
<symbol id="icon-people_1" viewBox="0 0 32 32">
<path d="M18.237 8.771c-0.464 0.322-0.987 0.548-1.539 0.665s-1.122 0.123-1.676 0.018c-0.554-0.105-1.082-0.32-1.553-0.632s-0.874-0.714-1.188-1.183c-0.313-0.469-0.53-0.996-0.638-1.55s-0.104-1.124 0.011-1.676 0.339-1.077 0.659-1.542c0.32-0.465 0.729-0.862 1.204-1.167 0.937-0.619 2.082-0.842 3.183-0.62s2.070 0.871 2.694 1.805 0.853 2.077 0.637 3.179c-0.216 1.102-0.86 2.074-1.791 2.703h-0.002zM17.057 3.472c-0.231-0.166-0.494-0.285-0.772-0.348s-0.566-0.069-0.847-0.019-0.548 0.157-0.787 0.313c-0.239 0.156-0.443 0.359-0.602 0.596s-0.268 0.503-0.321 0.783c-0.053 0.28-0.050 0.568 0.010 0.847s0.176 0.542 0.34 0.776c0.164 0.233 0.373 0.431 0.616 0.581 0.468 0.284 1.027 0.377 1.562 0.259s1.003-0.438 1.307-0.892c0.305-0.455 0.422-1.009 0.328-1.548s-0.393-1.021-0.834-1.346v-0.002zM22.604 3.535c0.613-0.412 1.35-0.598 2.085-0.525s1.422 0.4 1.942 0.924c0.37 0.373 0.644 0.832 0.796 1.336s0.178 1.037 0.076 1.553c-0.102 0.516-0.329 0.999-0.662 1.407s-0.76 0.728-1.244 0.932c-0.582 0.243-1.224 0.308-1.843 0.184s-1.187-0.429-1.631-0.877c-0.334-0.336-0.59-0.741-0.749-1.187s-0.218-0.922-0.171-1.393c0.046-0.471 0.196-0.927 0.439-1.333s0.572-0.755 0.965-1.019l-0.002-0.002zM23.624 6.957c0.2 0.199 0.47 0.31 0.751 0.309 0.139-0 0.277-0.028 0.406-0.082s0.246-0.132 0.344-0.231c0.098-0.099 0.176-0.216 0.229-0.345s0.080-0.267 0.080-0.406-0.028-0.277-0.082-0.406c-0.054-0.129-0.132-0.246-0.231-0.344-0.198-0.199-0.465-0.313-0.746-0.319-0.14-0-0.279 0.027-0.408 0.081s-0.247 0.133-0.346 0.232-0.177 0.217-0.23 0.347c-0.053 0.13-0.080 0.269-0.078 0.409 0.001 0.283 0.112 0.554 0.31 0.756v-0.002zM5.655 25.398h3.846v2.136h-3.846c-0.673-0.006-1.317-0.279-1.789-0.759-0.474-0.482-0.74-1.13-0.74-1.806v-3.846c-0.286-0.010-0.567-0.077-0.827-0.198s-0.491-0.294-0.682-0.507c-0.203-0.205-0.362-0.45-0.468-0.718s-0.156-0.555-0.149-0.844v-4.637c0.006-1.003 0.404-1.961 1.105-2.673 0.699-0.703 1.645-1.105 2.635-1.111h3.91c-0.527 0.628-0.925 1.355-1.169 2.138h-2.741c-0.431 0.012-0.842 0.189-1.147 0.493-0.3 0.309-0.468 0.723-0.468 1.154v4.743h2.125v6.005c-0.005 0.058 0.002 0.116 0.020 0.171s0.048 0.106 0.086 0.149c0.085 0.066 0.19 0.103 0.298 0.106v0.004zM21.167 11.547c-0.348-0.351-0.761-0.63-1.217-0.821s-0.945-0.29-1.439-0.291h-5.27c-0.991 0.008-1.938 0.407-2.635 1.111-0.701 0.712-1.099 1.67-1.105 2.673v6.753c-0.003 0.58 0.218 1.139 0.616 1.56 0.191 0.213 0.423 0.386 0.682 0.507s0.54 0.189 0.826 0.199v4.936c-0.002 0.337 0.063 0.671 0.19 0.983s0.316 0.595 0.553 0.834c0.383 0.357 0.865 0.589 1.381 0.663h4.25c0.598-0.078 1.145-0.375 1.538-0.833s0.601-1.044 0.587-1.647v-4.939c0.286-0.010 0.567-0.077 0.827-0.198s0.491-0.294 0.682-0.507c0.203-0.205 0.361-0.449 0.467-0.717s0.157-0.555 0.149-0.843v-6.753c0.002-0.998-0.387-1.958-1.084-2.673v0.002zM20.126 21.077h-2.125v7.098c-0.002 0.112-0.048 0.219-0.128 0.297-0.036 0.043-0.082 0.077-0.134 0.099s-0.108 0.032-0.164 0.029h-3.421c-0.111-0.005-0.216-0.052-0.295-0.13s-0.125-0.184-0.13-0.295v-7.098h-2.104v-6.86c0-0.431 0.168-0.846 0.467-1.154 0.306-0.304 0.716-0.481 1.148-0.493h5.27c0.322 0.006 0.635 0.105 0.901 0.286s0.474 0.436 0.597 0.734c0.081 0.199 0.121 0.412 0.117 0.627v6.86zM26.097 27.531h-3.846v-2.136h3.825c0.108-0.003 0.212-0.040 0.297-0.106 0.043-0.042 0.076-0.092 0.098-0.148s0.032-0.115 0.029-0.175v-6.005h2.125v-4.743c0.001-0.431-0.167-0.845-0.468-1.154-0.306-0.304-0.716-0.481-1.148-0.493h-2.741c-0.244-0.783-0.641-1.51-1.169-2.138h3.91c0.99 0.009 1.937 0.408 2.635 1.111 0.701 0.712 1.099 1.67 1.105 2.673v4.637c0 0.58-0.219 1.137-0.614 1.558-0.395 0.423-0.935 0.676-1.511 0.708v3.846c0 0.678-0.266 1.326-0.739 1.806-0.473 0.48-1.116 0.753-1.789 0.759zM7.376 2.996c-0.632-0.001-1.25 0.187-1.775 0.54s-0.932 0.854-1.17 1.44c-0.24 0.586-0.302 1.229-0.179 1.85s0.426 1.192 0.872 1.641c0.445 0.449 1.014 0.755 1.635 0.879s1.263 0.061 1.847-0.183c0.584-0.243 1.082-0.655 1.431-1.182s0.532-1.147 0.527-1.78c0-0.85-0.336-1.666-0.935-2.267-0.295-0.297-0.646-0.533-1.033-0.694s-0.801-0.244-1.22-0.245zM7.376 7.271c-0.14 0-0.279-0.027-0.408-0.081s-0.247-0.133-0.346-0.232c-0.099-0.099-0.177-0.217-0.23-0.347s-0.080-0.269-0.078-0.409c0.001-0.282 0.112-0.553 0.311-0.753s0.469-0.314 0.751-0.316c0.281 0.005 0.55 0.119 0.748 0.319s0.311 0.469 0.314 0.75c-0.001 0.282-0.112 0.553-0.311 0.753s-0.469 0.314-0.751 0.316z"></path>
</symbol>
<symbol id="icon-speed" viewBox="0 0 39 32">
<path d="M36.696 9.064l-2.46 3.7c1.186 2.366 1.767 4.99 1.69 7.635s-0.809 5.231-2.13 7.525h-27.72c-1.718-2.98-2.429-6.434-2.030-9.85s1.89-6.613 4.249-9.115c2.359-2.503 5.462-4.179 8.849-4.779s6.877-0.094 9.953 1.445l3.7-2.46c-3.767-2.416-8.235-3.498-12.69-3.074s-8.639 2.329-11.883 5.412-5.36 7.164-6.011 11.592c-0.65 4.428 0.203 8.945 2.424 12.83 0.349 0.605 0.85 1.107 1.454 1.458s1.288 0.538 1.986 0.542h27.7c0.705 0.003 1.398-0.181 2.009-0.532s1.119-0.858 1.471-1.468c1.843-3.192 2.767-6.832 2.672-10.516s-1.207-7.271-3.212-10.364l-0.020 0.020zM17.116 22.744c0.371 0.372 0.813 0.667 1.298 0.868s1.006 0.305 1.532 0.305 1.046-0.104 1.532-0.305c0.486-0.201 0.927-0.496 1.298-0.868l11.32-16.98-16.98 11.32c-0.372 0.371-0.667 0.813-0.868 1.298s-0.305 1.006-0.305 1.532 0.104 1.046 0.305 1.532c0.201 0.486 0.496 0.927 0.868 1.298z"></path>
</symbol>
<symbol id="icon-arrow" viewBox="0 0 32 32">
<path fill="" style="" d="M30.805 0.524c-0.175-0.182-0.397-0.307-0.639-0.362s-0.494-0.037-0.726 0.051l-28.601 10.816c-0.247 0.097-0.459 0.27-0.609 0.496s-0.23 0.494-0.23 0.768c0 0.274 0.080 0.542 0.23 0.768s0.362 0.399 0.609 0.496l12.48 5.192 4.992 12.98c0.094 0.245 0.255 0.457 0.462 0.608s0.454 0.236 0.708 0.244c0.263-0.006 0.518-0.094 0.731-0.253s0.376-0.382 0.465-0.639l10.4-29.745c0.089-0.239 0.11-0.5 0.062-0.751s-0.164-0.483-0.335-0.669zM19.482 27.443l-3.627-9.464 6.227-6.476-1.833-1.906-6.279 6.53-9.048-3.826 22.79-8.558-8.229 23.701z"></path>
</symbol>
<symbol id="icon-location2" viewBox="0 0 32 32">
<path d="M16 0c-5.523 0-10 4.477-10 10 0 10 10 22 10 22s10-12 10-22c0-5.523-4.477-10-10-10zM16 16.125c-3.383 0-6.125-2.742-6.125-6.125s2.742-6.125 6.125-6.125 6.125 2.742 6.125 6.125-2.742 6.125-6.125 6.125zM12.125 10c0-2.14 1.735-3.875 3.875-3.875s3.875 1.735 3.875 3.875c0 2.14-1.735 3.875-3.875 3.875s-3.875-1.735-3.875-3.875z"></path>
</symbol>
<symbol id="icon-phone" viewBox="0 0 32 32">
<path fill="" style="" d="M25.302 17.331c-0.156-0.157-0.342-0.281-0.546-0.365s-0.423-0.128-0.644-0.128c-0.221 0-0.44 0.044-0.644 0.128s-0.39 0.209-0.546 0.365l-2.684 2.684c-1.244-0.37-3.566-1.212-5.038-2.684s-2.313-3.793-2.684-5.038l2.684-2.684c0.156-0.156 0.281-0.342 0.365-0.546s0.128-0.423 0.128-0.644c0-0.221-0.044-0.44-0.128-0.644s-0.209-0.39-0.365-0.546l-6.735-6.735c-0.156-0.156-0.342-0.281-0.546-0.365s-0.423-0.128-0.644-0.128c-0.221 0-0.44 0.044-0.644 0.128s-0.39 0.209-0.546 0.365l-4.566 4.566c-0.64 0.64-1 1.519-0.987 2.416 0.039 2.398 0.673 10.725 7.237 17.289s14.891 7.196 17.29 7.237h0.047c0.889 0 1.729-0.35 2.366-0.987l4.566-4.566c0.157-0.156 0.281-0.342 0.365-0.546s0.128-0.423 0.128-0.644c0-0.221-0.044-0.44-0.128-0.644s-0.209-0.39-0.365-0.546l-6.735-6.737zM25.088 28.632c-2.101-0.035-9.291-0.599-14.94-6.25-5.667-5.667-6.216-12.882-6.25-14.941l3.376-3.376 4.354 4.354-2.177 2.177c-0.198 0.198-0.343 0.442-0.423 0.71s-0.092 0.552-0.035 0.826c0.040 0.194 1.029 4.785 3.824 7.58s7.387 3.783 7.58 3.824c0.274 0.059 0.558 0.048 0.826-0.032s0.512-0.226 0.709-0.424l2.179-2.177 4.354 4.354-3.378 3.376z"></path>
</symbol>
<symbol id="icon-send-alt" viewBox="0 0 28 32">
<path fill="#8ec2f2" style="fill: var(--color1, #8ec2f2)" d="M28.101 2.627c-0.16-0.166-0.362-0.28-0.583-0.33s-0.45-0.034-0.662 0.047l-26.074 9.861c-0.225 0.089-0.418 0.247-0.555 0.452s-0.21 0.45-0.21 0.7c0 0.25 0.073 0.494 0.21 0.7s0.33 0.364 0.555 0.452l11.378 4.733 4.551 11.833c0.085 0.224 0.232 0.416 0.422 0.554s0.414 0.215 0.645 0.222c0.24-0.005 0.472-0.086 0.667-0.231s0.342-0.348 0.424-0.583l9.481-27.117c0.081-0.218 0.1-0.456 0.056-0.685s-0.15-0.441-0.305-0.61zM17.778 27.168l-3.307-8.628 5.677-5.904-1.671-1.738-5.724 5.953-8.249-3.488 20.776-7.802-7.502 21.607z"></path>
</symbol>
<symbol id="icon-bx_bx-map" viewBox="0 0 25 32">
<path fill="#8ec2f2" style="fill: var(--color1, #8ec2f2)" d="M12.387 18.839c3.416 0 6.194-2.778 6.194-6.194s-2.778-6.193-6.194-6.193c-3.416 0-6.193 2.778-6.193 6.193s2.778 6.194 6.193 6.194zM12.387 9.548c1.708 0 3.097 1.389 3.097 3.097s-1.389 3.097-3.097 3.097c-1.708 0-3.097-1.389-3.097-3.097s1.389-3.097 3.097-3.097z"></path>
<path fill="#8ec2f2" style="fill: var(--color1, #8ec2f2)" d="M11.489 30.938c0.262 0.187 0.576 0.288 0.898 0.288s0.636-0.101 0.898-0.288c0.471-0.333 11.534-8.321 11.489-18.292 0-6.83-5.557-12.387-12.387-12.387s-12.387 5.557-12.387 12.379c-0.045 9.979 11.018 17.967 11.489 18.3zM12.387 3.355c5.123 0 9.29 4.167 9.29 9.298 0.033 6.872-6.794 13.042-9.29 15.066-2.494-2.025-9.323-8.197-9.29-15.073 0-5.124 4.167-9.29 9.29-9.29z"></path>
</symbol>
<symbol id="icon-bx-phone" viewBox="0 0 31 32">
<path fill="#8ec2f2" style="fill: var(--color1, #8ec2f2)" d="M24.125 16.61c-0.142-0.143-0.312-0.256-0.498-0.333s-0.386-0.117-0.588-0.117c-0.202 0-0.402 0.040-0.588 0.117s-0.356 0.191-0.498 0.333l-2.448 2.448c-1.135-0.338-3.253-1.106-4.596-2.448s-2.11-3.461-2.448-4.596l2.448-2.448c0.143-0.143 0.256-0.312 0.333-0.498s0.117-0.386 0.117-0.588c0-0.202-0.040-0.401-0.117-0.588s-0.191-0.356-0.333-0.498l-6.144-6.144c-0.143-0.143-0.312-0.256-0.498-0.333s-0.386-0.117-0.588-0.117c-0.202 0-0.401 0.040-0.588 0.117s-0.356 0.191-0.498 0.333l-4.166 4.166c-0.584 0.584-0.912 1.385-0.9 2.204 0.035 2.187 0.614 9.784 6.602 15.772s13.584 6.565 15.773 6.602h0.043c0.811 0 1.577-0.32 2.158-0.9l4.166-4.165c0.143-0.143 0.256-0.312 0.333-0.498s0.117-0.386 0.117-0.588c0-0.202-0.040-0.402-0.117-0.588s-0.191-0.356-0.333-0.498l-6.144-6.146zM23.93 26.92c-1.917-0.032-8.476-0.547-13.629-5.701-5.17-5.17-5.671-11.752-5.702-13.63l3.080-3.080 3.972 3.972-1.986 1.986c-0.181 0.18-0.313 0.403-0.386 0.648s-0.084 0.503-0.032 0.753c0.037 0.177 0.938 4.365 3.488 6.915s6.738 3.451 6.915 3.488c0.25 0.054 0.509 0.044 0.754-0.029s0.467-0.206 0.647-0.387l1.988-1.986 3.972 3.972-3.081 3.080z"></path>
</symbol>
<symbol id="icon-youtube" viewBox="0 0 43 32">
<path fill="#e42f08" style="fill: var(--color1, #e42f08)" d="M41.724 5.212c-0.242-0.947-0.718-1.811-1.377-2.505s-1.481-1.193-2.382-1.448c-3.318-0.944-16.653-0.944-16.653-0.944s-13.334 0-16.653 0.944c-0.901 0.255-1.723 0.754-2.382 1.448s-1.135 1.558-1.377 2.505c-0.62 3.559-0.92 7.17-0.898 10.788-0.022 3.618 0.278 7.229 0.898 10.788 0.243 0.948 0.718 1.811 1.377 2.505s1.481 1.193 2.382 1.448c3.318 0.944 16.653 0.944 16.653 0.944s13.334 0 16.653-0.944c0.901-0.255 1.723-0.755 2.382-1.448s1.135-1.558 1.377-2.505c0.62-3.559 0.92-7.171 0.898-10.788 0.022-3.618-0.279-7.229-0.898-10.788v0zM17.050 22.722v-13.445l11.066 6.723-11.066 6.722z"></path>
</symbol>
<symbol id="icon-twitter" viewBox="0 0 38 32">
<path fill="#21a6df" style="fill: var(--color2, #21a6df)" d="M38.401 3.945c-1.411 0.617-2.946 1.062-4.527 1.235 1.642-0.99 2.871-2.553 3.457-4.397-1.54 0.93-3.228 1.582-4.988 1.927-0.736-0.798-1.625-1.434-2.613-1.867s-2.054-0.656-3.131-0.654c-4.356 0-7.86 3.583-7.86 7.981 0 0.617 0.074 1.235 0.194 1.829-6.523-0.346-12.341-3.509-16.208-8.35-0.705 1.222-1.074 2.612-1.069 4.028 0 2.769 1.388 5.211 3.503 6.648-1.247-0.050-2.465-0.398-3.554-1.015v0.098c0 3.878 2.701 7.092 6.302 7.831-0.676 0.178-1.371 0.269-2.070 0.271-0.512 0-0.996-0.052-1.484-0.122 0.996 3.162 3.895 5.459 7.348 5.534-2.701 2.147-6.085 3.41-9.759 3.41-0.659 0-1.268-0.023-1.899-0.098 3.485 2.269 7.62 3.579 12.073 3.579 14.456 0 22.367-12.154 22.367-22.703 0-0.346 0-0.692-0.023-1.039 1.531-1.137 2.872-2.545 3.941-4.126z"></path>
</symbol>
<symbol id="icon-instagram" viewBox="0 0 32 32">
<path fill="#e61f5a" style="fill: var(--color3, #e61f5a)" d="M16.002 7.797c-4.54 0-8.204 3.664-8.204 8.204s3.664 8.204 8.204 8.204 8.204-3.664 8.204-8.204c0-4.54-3.664-8.204-8.204-8.204zM16.002 21.333c-2.936 0-5.332-2.396-5.332-5.332s2.396-5.332 5.332-5.332 5.332 2.396 5.332 5.332c0 2.936-2.396 5.332-5.332 5.332zM24.542 5.549c-1.060 0-1.916 0.856-1.916 1.916s0.856 1.916 1.916 1.916c1.060 0 1.916-0.852 1.916-1.916 0-0.252-0.049-0.501-0.145-0.734s-0.237-0.444-0.415-0.622-0.389-0.319-0.622-0.415c-0.233-0.096-0.482-0.146-0.734-0.145zM31.994 16.001c0-2.208 0.020-4.396-0.104-6.6-0.124-2.56-0.708-4.832-2.58-6.704-1.876-1.876-4.144-2.456-6.704-2.58-2.208-0.124-4.396-0.104-6.6-0.104-2.208 0-4.396-0.020-6.6 0.104-2.56 0.124-4.832 0.708-6.704 2.58-1.876 1.876-2.456 4.144-2.58 6.704-0.124 2.208-0.104 4.396-0.104 6.6s-0.020 4.396 0.104 6.6c0.124 2.56 0.708 4.832 2.58 6.704 1.876 1.876 4.144 2.456 6.704 2.58 2.208 0.124 4.396 0.104 6.6 0.104 2.208 0 4.396 0.020 6.6-0.104 2.56-0.124 4.832-0.708 6.704-2.58 1.876-1.876 2.456-4.144 2.58-6.704 0.128-2.204 0.104-4.392 0.104-6.6zM28.474 25.433c-0.292 0.728-0.644 1.272-1.208 1.832-0.564 0.564-1.104 0.916-1.832 1.208-2.104 0.836-7.1 0.648-9.432 0.648s-7.332 0.188-9.436-0.644c-0.728-0.292-1.272-0.644-1.832-1.208-0.564-0.564-0.916-1.104-1.208-1.832-0.832-2.108-0.644-7.104-0.644-9.436s-0.188-7.332 0.644-9.436c0.292-0.728 0.644-1.272 1.208-1.832s1.104-0.916 1.832-1.208c2.104-0.832 7.104-0.644 9.436-0.644s7.332-0.188 9.436 0.644c0.728 0.292 1.272 0.644 1.832 1.208 0.564 0.564 0.916 1.104 1.208 1.832 0.832 2.104 0.644 7.104 0.644 9.436s0.188 7.328-0.648 9.432z"></path>
</symbol>
</defs>
<symbol id="icon-facebook" viewBox="0 0 32 32">
<path fill="#335bf5" style="fill: var(--color4, #335bf5)" d="M30.72 0h-29.44c-0.708 0-1.28 0.572-1.28 1.28v29.44c0 0.708 0.572 1.28 1.28 1.28h29.44c0.708 0 1.28-0.572 1.28-1.28v-29.44c0-0.708-0.572-1.28-1.28-1.28zM27.024 9.34h-2.556c-2.004 0-2.392 0.952-2.392 2.352v3.084h4.784l-0.624 4.828h-4.16v12.396h-4.988v-12.392h-4.172v-4.832h4.172v-3.56c0-4.132 2.524-6.384 6.212-6.384 1.768 0 3.284 0.132 3.728 0.192v4.316h-0.004z"></path>
</symbol>
</svg>
